<?xml version="1.0" encoding="UTF-8"?>
<svg width="29px" height="29px" viewBox="0 0 29 29" version="1.1" xmlns="http://www.w3.org/2000/svg" xmlns:xlink="http://www.w3.org/1999/xlink">
    <!-- Generator: Sketch 64 (93537) - https://sketch.com -->
    <title>icon/bubble claim copy 11</title>
    <desc>Created with Sketch.</desc>
    <g id="Toolbar" stroke="none" stroke-width="1" fill="none" fill-rule="evenodd">
        <g id="Tooltip-on-label" transform="translate(-687.000000, -351.000000)">
            <g id="icon/bubble-claim" transform="translate(688.000000, 352.000000)">
                <path d="M2.44306667,21.411855 L2.44306667,26.091855 C2.44306667,26.451855 2.62084444,26.721855 2.9764,26.901855 C3.33195556,27.081855 3.68795556,26.991855 3.95417778,26.811855 L10.5319556,21.411855 L24.9324,21.411855 C26.3546222,21.411855 27.4208444,20.241855 27.4208444,18.891855 L27.4208444,2.961855 C27.4208444,1.521855 26.2657333,0.441855 24.9324,0.441855 L2.53195556,0.441855 C1.19862222,0.441855 0.0435111111,1.611855 0.0435111111,2.961855 L0.0435111111,18.891855 C0.0435111111,20.241855 1.10973333,21.411855 2.44306667,21.411855" id="Fill-11" stroke="#37474F" stroke-width="1"></path>
                <path d="M8.70613333,8.293815 C9.67591111,8.293815 10.4621333,9.089865 10.4621333,10.071765 C10.4621333,11.054115 9.67591111,11.850165 8.70613333,11.850165 C7.73635556,11.850165 6.95013333,11.054115 6.95013333,10.071765 C6.95013333,9.089865 7.73635556,8.293815 8.70613333,8.293815 Z M13.7321778,8.293815 C14.7015111,8.293815 15.4881778,9.089865 15.4881778,10.071765 C15.4881778,11.054115 14.7015111,11.850165 13.7321778,11.850165 C12.7619556,11.850165 11.9761778,11.054115 11.9761778,10.071765 C11.9761778,9.089865 12.7619556,8.293815 13.7321778,8.293815 Z M18.7582222,8.293815 C19.7275556,8.293815 20.5142222,9.089865 20.5142222,10.071765 C20.5142222,11.054115 19.7275556,11.850165 18.7582222,11.850165 C17.788,11.850165 17.0017778,11.054115 17.0017778,10.071765 C17.0017778,9.089865 17.788,8.293815 18.7582222,8.293815 Z" id="Combined-Shape" fill="#37474F" fill-rule="evenodd"></path>
            </g>
        </g>
    </g>
</svg>